# xmcd
#
# Track frame offsets: 
#        150
#        10669
#        21359
#        33747
#        43890
#        52809
#        64492
#        74351
#        82335
#        93935
#        104155
#        113493
#        126808
#        138109
#        148627
#        157760
#        165985
#        177837
#        188632
#        199459
#        209302
#        226826
#        237576
#        250259
#        261359
#        276280
#        288357
#        298166
#
# Disc length: 4152 seconds
#
# Revision: 2
# Processed by: cddbd v1.5.2PL0 Copyright (c) Steve Scherf et al.
# Submitted via: ExactAudioCopyFreeDBPlugin 1.0
#
DISCID=a410361c
DTITLE=Various Artist - Mod:  The Early Years [Real Gone Music]
DYEAR=2014
DGENRE=Rhythm and Blues
TTITLE0=Carla Thomas - Gee Whiz
TTITLE1=Pete Bennett and The Ambers - Fever
TTITLE2=Paul Gayten - The Hunch
TTITLE3=Jessie Hill - Oom Poo Pah Doo, Part 1
TTITLE4=Willie Harper - But I Couldn't
TTITLE5=Willie Cobbs - You Don't Love Me
TTITLE6=Slim Harpo - Don't Start Cryin' Now
TTITLE7=Nat Kendrick and The Swans - Mashed Potatoes
TTITLE8=Eddie Holland - Take a Chance on Me
TTITLE9=Maurice Williams and The Zodiacs - Come and Get It
TTITLE10=Tiny Topsy - Miss You So
TTITLE11=Eric Morris and His Drumbago All Stars - Humpty Dumpty
TTITLE12=Fabulous Playboys - Honky Tonk Women
TTITLE13=Bobby Lewis - Tossin' and Turnin'
TTITLE14=The Marathons - Peanut Butter
TTITLE15=LaVern Baker - Voodoo Voodoo
TTITLE16=Ike and Tina Turner - A Fool in Love
TTITLE17=Lee Dorsey - Ya Ya
TTITLE18=Ronnie Love - Chills and Fever
TTITLE19=Billy Preston - Volcano
TTITLE20=Jimmy Smith - I Got a Woman
TTITLE21=Billy Hope and The Bad Times - Bad Times
TTITLE22=Ray Charles - Unchain My Heart
TTITLE23=Joe Simon - I See Your Face
TTITLE24=Mose Allison - Parchman Farm
TTITLE25=Otis Blackwell - Daddy Rolling Stone
TTITLE26=Dick and Dee Dee - The Mountain's High
TTITLE27=Bobby "Blue" Band - Further on Up the Road
EXTD=
EXTT0=
EXTT1=
EXTT2=
EXTT3=
EXTT4=
EXTT5=
EXTT6=
EXTT7=
EXTT8=
EXTT9=
EXTT10=
EXTT11=
EXTT12=
EXTT13=
EXTT14=
EXTT15=
EXTT16=
EXTT17=
EXTT18=
EXTT19=
EXTT20=
EXTT21=
EXTT22=
EXTT23=
EXTT24=
EXTT25=
EXTT26=
EXTT27=
PLAYORDER=
